<?xml version="1.0" standalone="no"?>
<!DOCTYPE svg PUBLIC "-//W3C//DTD SVG 20010904//EN"
 "http://www.w3.org/TR/2001/REC-SVG-20010904/DTD/svg10.dtd">
<svg version="1.0" xmlns="http://www.w3.org/2000/svg"
 width="400.000000pt" height="250.000000pt" viewBox="0 0 400.000000 250.000000"
 preserveAspectRatio="xMidYMid meet">
<metadata>
Created by potrace 1.16, written by Peter Selinger 2001-2019
</metadata>
<g transform="translate(0.000000,250.000000) scale(0.100000,-0.100000)"
fill="#000000" stroke="none">
<path d="M1382 2178 c-12 -23 -21 -43 -19 -45 2 -2 80 2 173 8 96 6 237 8 327
4 129 -6 157 -5 157 6 0 12 -50 13 -290 11 -303 -4 -315 -3 -322 39 -2 14 -8
9 -26 -23z"/>
<path d="M2040 2092 c0 -6 -86 -8 -222 -4 -220 4 -508 -9 -579 -28 -46 -13
-112 -69 -135 -117 -10 -21 -23 -63 -30 -93 l-12 -55 -2 55 c-7 222 -80 -519
-80 -805 0 -116 3 -135 24 -180 21 -45 86 -121 86 -100 0 4 -13 29 -30 55 -48
75 -60 122 -58 229 l1 96 7 -110 c4 -71 12 -121 22 -140 21 -40 66 -81 102
-95 49 -18 357 -33 566 -26 l195 5 13 -26 c8 -18 9 -30 2 -37 -6 -6 -121 -13
-288 -17 l-277 -6 275 1 c188 1 281 5 295 13 21 12 98 35 128 38 33 3 116 101
109 128 -1 4 2 7 6 7 20 0 35 64 53 216 21 186 34 439 21 409 -5 -11 -12 -65
-16 -120 -9 -134 -36 -396 -42 -415 -4 -11 -7 -12 -13 -2 -5 9 -15 6 -35 -13
-27 -25 -53 -34 -41 -14 22 35 62 543 67 835 l2 151 -33 69 c-17 38 -35 76
-40 84 -9 17 -41 26 -41 12z m71 -121 c24 -51 26 -91 18 -292 -14 -322 -47
-668 -68 -707 -27 -51 -27 -52 4 348 8 107 16 283 17 390 2 184 1 198 -20 244
-17 37 -20 51 -11 57 17 10 45 -9 60 -40z m-597 -260 c-4 -61 -11 -111 -16
-111 -6 0 -7 42 -2 104 l7 104 -29 -5 c-20 -4 -26 -2 -19 5 9 9 55 21 63 16 2
-1 0 -52 -4 -113z m210 97 c28 -40 15 -170 -20 -199 -23 -19 -72 -15 -89 7
-29 38 -13 183 23 203 30 18 70 13 86 -11z m-669 -113 c-4 -37 -9 -65 -11 -62
-3 2 -2 34 2 71 4 37 9 64 12 62 2 -3 1 -35 -3 -71z m-18 -197 c-2 -13 -4 -3
-4 22 0 25 2 35 4 23 2 -13 2 -33 0 -45z m763 -12 c0 -6 -7 -1 -15 10 -8 10
-15 23 -15 28 0 6 7 1 15 -10 8 -10 15 -23 15 -28z m38 12 c-11 -11 -23 -16
-26 -12 -4 3 -1 9 7 12 10 3 10 6 1 12 -7 5 -3 8 13 8 24 0 24 -1 5 -20z
m-811 -90 c-2 -13 -4 -3 -4 22 0 25 2 35 4 23 2 -13 2 -33 0 -45z m460 -60
c-4 -46 -7 -98 -7 -115 0 -18 -4 -33 -10 -33 -6 0 -7 38 -3 106 l6 107 -26 -5
c-15 -3 -27 -2 -27 3 0 4 10 10 23 12 52 10 50 13 44 -75z m208 65 c14 -13 16
-32 13 -96 -3 -72 -6 -81 -31 -103 -36 -31 -52 -30 -84 2 -24 24 -25 30 -20
96 8 88 26 118 72 118 18 0 41 -8 50 -17z m-678 -210 c-2 -16 -4 -3 -4 27 0
30 2 43 4 28 2 -16 2 -40 0 -55z m367 -279 c3 -8 2 -12 -4 -9 -6 3 -10 10 -10
16 0 14 7 11 14 -7z"/>
<path d="M1645 1795 c-22 -21 -25 -33 -25 -93 0 -49 4 -73 15 -82 21 -18 60
-5 73 25 18 39 15 140 -4 159 -21 22 -31 20 -59 -9z"/>
<path d="M1614 1399 c-12 -14 -19 -40 -22 -83 -5 -74 8 -106 43 -106 39 0 55
35 55 117 0 61 -3 74 -19 83 -28 14 -35 13 -57 -11z"/>
<path d="M2190 2035 c0 -13 42 -86 46 -82 6 5 -33 87 -41 87 -3 0 -5 -2 -5 -5z"/>
<path d="M2270 1738 c0 -35 -3 -87 -6 -115 -5 -34 -3 -53 4 -53 6 0 10 44 11
115 1 63 -1 115 -4 115 -3 0 -5 -28 -5 -62z"/>
<path d="M2621 1778 l-1 -28 -134 0 c-85 0 -137 -4 -141 -11 -4 -6 -5 -12 -2
-15 2 -3 69 0 148 5 104 8 147 15 158 26 14 13 14 15 -1 15 -9 0 -19 8 -21 18
-3 10 -5 6 -6 -10z"/>
<path d="M2270 1551 c0 -6 4 -13 10 -16 6 -3 7 1 4 9 -7 18 -14 21 -14 7z"/>
<path d="M2641 1514 c0 -11 3 -14 6 -6 3 7 2 16 -1 19 -3 4 -6 -2 -5 -13z"/>
<path d="M2247 1263 c-4 -3 -6 -18 -6 -32 1 -21 2 -22 6 -6 3 11 10 26 15 33
11 12 -3 18 -15 5z"/>
<path d="M2300 1261 c0 -6 11 -11 25 -11 24 0 24 -2 23 -62 -1 -44 4 -73 16
-97 10 -19 19 -58 20 -85 l1 -51 -43 -3 c-24 -2 -50 2 -58 9 -11 9 -14 8 -14
-5 0 -15 10 -16 73 -14 62 3 72 5 69 21 -2 9 2 17 8 17 7 0 9 8 5 20 -8 24 13
34 91 45 63 8 106 -10 130 -57 14 -27 16 -51 11 -143 -6 -109 -6 -110 10 -65
20 58 12 170 -19 248 l-23 57 -93 3 c-73 2 -96 -1 -108 -13 -20 -19 -34 -19
-34 1 0 8 -7 23 -16 31 -12 13 -15 32 -12 87 l3 71 -32 3 c-19 2 -33 -1 -33
-7z"/>
<path d="M2233 1135 c0 -22 2 -30 4 -17 2 12 2 30 0 40 -3 9 -5 -1 -4 -23z"/>
<path d="M2222 1060 c0 -19 2 -27 5 -17 2 9 2 25 0 35 -3 9 -5 1 -5 -18z"/>
<path d="M2255 871 c-10 -32 4 -45 26 -25 17 16 19 16 19 1 0 -13 10 -17 43
-17 51 0 70 11 65 36 -3 16 -14 19 -75 22 -64 3 -72 1 -78 -17z"/>
<path d="M2240 765 c-23 -27 5 -45 71 -45 65 0 99 20 78 46 -16 20 -132 19
-149 -1z"/>
<path d="M1256 654 c3 -19 12 -54 20 -77 11 -35 13 -38 13 -15 1 18 10 33 26
44 22 15 58 16 315 12 l290 -4 0 23 0 23 -300 0 c-260 0 -300 2 -300 15 0 11
-11 15 -35 15 -36 0 -36 0 -29 -36z"/>
<path d="M2226 658 c-9 -12 -12 -25 -8 -29 8 -8 152 1 152 10 -1 19 -21 29
-72 35 -51 5 -58 4 -72 -16z"/>
<path d="M2197 552 c-24 -26 -13 -32 57 -32 68 0 92 10 83 34 -10 24 -118 22
-140 -2z"/>
<path d="M2176 468 c-9 -5 -16 -16 -16 -23 0 -12 14 -15 63 -15 104 0 121 33
20 42 -28 3 -58 1 -67 -4z"/>
<path d="M2138 380 c-34 -21 -18 -30 50 -30 62 0 104 11 91 24 -12 12 -124 16
-141 6z"/>
<path d="M2112 298 c5 -16 50 -22 95 -13 52 9 29 25 -38 25 -44 0 -60 -3 -57
-12z"/>
<path d="M2155 240 c3 -5 12 -7 20 -3 21 7 19 13 -6 13 -11 0 -18 -4 -14 -10z"/>
<path d="M2260 88 c-26 -5 -162 -7 -325 -4 -279 4 -340 2 -329 -15 15 -25 745
-1 771 25 9 9 -64 5 -117 -6z"/>
</g>
</svg>
