<svg xmlns="http://www.w3.org/2000/svg" width="512" height="512" viewBox="0 0 512 512" version="1.1">
	<path d="M 236 11.046 C 231.875 11.548, 224.834 13.093, 220.354 14.480 C 215.873 15.866, 209.932 17, 207.151 17 C 197.825 17, 194.824 19.908, 191.156 32.500 C 189.015 39.847, 184.602 60.975, 183.427 69.500 C 183.048 72.250, 182.534 73.938, 182.285 73.250 C 181.719 71.684, 175.922 71.623, 172.576 73.147 C 169.638 74.486, 168.382 77.926, 167.520 87 C 166.506 97.679, 165.019 108.031, 163.327 116.199 L 161.733 123.899 152.078 132.829 C 131.229 152.114, 117.567 173.267, 109.075 199.407 C 102.678 219.099, 101.545 226.656, 101.564 249.500 C 101.589 279.445, 105.637 296.968, 118.066 320.928 C 126.627 337.431, 135.700 349.673, 149.750 363.679 C 156.487 370.395, 162.006 376.252, 162.013 376.695 C 162.079 380.598, 167.255 418.229, 168.066 420.692 C 169.409 424.772, 174.425 426.745, 179.213 425.075 C 182.726 423.851, 183.957 424.782, 183.985 428.680 C 184.022 433.953, 194.941 483.964, 196.889 487.782 C 199.384 492.674, 201.396 493.427, 223 497.556 C 241.356 501.065, 260.716 501.804, 276 499.579 C 291.210 497.364, 308.721 493.413, 311.556 491.555 C 312.808 490.735, 314.776 487.541, 315.930 484.458 C 318.023 478.862, 325.219 442.138, 326.562 430.195 C 327.151 424.955, 327.544 423.996, 328.885 424.515 C 335.115 426.927, 340.091 425.658, 342.474 421.050 C 343.400 419.259, 345.138 409.098, 346.715 396.257 C 349.231 375.761, 349.538 374.355, 352.007 372 C 374.170 350.860, 378.787 345.529, 387.960 330.483 C 397.963 314.076, 405.365 294.561, 408.353 276.717 L 409.553 269.546 413.917 268.801 C 421.938 267.432, 425 262.657, 425 251.518 C 425 239.396, 421.549 234, 413.797 234 C 410.696 234, 409.961 233.606, 409.596 231.750 C 400.826 187.065, 388.544 162.278, 362.276 136.250 L 348.904 123.001 347.530 115.750 C 346.774 111.763, 345.414 102.425, 344.509 95 C 343.603 87.575, 342.403 80.022, 341.842 78.215 C 340.439 73.698, 336.967 71.607, 331.979 72.276 C 328.069 72.800, 328 72.755, 327.998 69.655 C 327.995 64.978, 321.545 34.424, 319.103 27.516 C 315.912 18.493, 313.446 16.520, 305.227 16.412 C 301.097 16.358, 294.832 15.262, 289 13.574 C 280.525 11.120, 277.557 10.786, 261.500 10.478 C 251.600 10.288, 240.125 10.543, 236 11.046 M 251 44.662 C 243.556 45.389, 235.393 47.269, 231.864 49.069 C 229.837 50.103, 225.326 54.124, 221.839 58.005 C 215.546 65.008, 208.560 70.139, 198 75.513 C 189.100 80.042, 193.812 79.448, 205.830 74.526 C 211.938 72.024, 221.788 68.749, 227.718 67.249 C 237.535 64.766, 240.111 64.526, 256.500 64.570 C 277.259 64.624, 285.209 66.046, 303.870 73.040 C 310.040 75.353, 315.309 77.025, 315.578 76.755 C 315.847 76.486, 313.857 74.581, 311.156 72.521 C 308.455 70.461, 303.786 65.766, 300.781 62.087 C 292.064 51.418, 284.262 47.220, 269 44.990 C 262.637 44.060, 258.027 43.976, 251 44.662 M 330.514 88.718 C 330.749 91.348, 331.157 95.853, 331.421 98.728 C 331.788 102.727, 331.511 104.346, 330.245 105.612 C 328.266 107.592, 328.317 107.756, 327.485 96.767 C 326.913 89.213, 326.631 88.226, 325.400 89.457 C 322.016 92.842, 304.564 92.690, 279.500 89.059 C 260.768 86.346, 246.388 86.461, 225.500 89.493 C 216.150 90.850, 203.867 91.969, 198.205 91.980 C 188.594 91.999, 187.746 91.837, 185.455 89.545 L 183 87.091 183 96.938 C 183 105.215, 182.734 106.888, 181.330 107.427 C 178.518 108.506, 177.867 105.897, 178.514 96.149 C 178.980 89.135, 178.843 86.979, 177.966 87.521 C 176.148 88.644, 174.227 93.992, 171.985 104.169 C 170.854 109.301, 169.659 114.383, 169.330 115.461 C 168.757 117.338, 168.834 117.350, 171.116 115.753 C 172.427 114.834, 179.125 110.969, 186 107.164 C 212.849 92.304, 229.415 88.275, 259.474 89.297 C 276.750 89.885, 287.926 91.837, 301 96.551 C 309.673 99.678, 328.107 108.734, 335.769 113.632 C 338.668 115.484, 341.178 117, 341.348 117 C 342.050 117, 335.064 91.025, 333.602 88.197 C 331.057 83.276, 330.043 83.447, 330.514 88.718 M 240 103.467 C 219.269 106.917, 196.142 116.717, 178.062 129.715 C 152.857 147.835, 133.550 175.135, 123.676 206.616 C 111.933 244.055, 115.154 283.140, 132.811 317.461 C 141.997 335.318, 160.396 356.334, 177.409 368.403 C 187.804 375.778, 207.246 385.304, 218.500 388.538 C 243.056 395.593, 271.183 395.344, 293.986 387.871 C 303.183 384.857, 319.535 377.046, 327.629 371.800 C 351.176 356.540, 374.669 327.646, 383.660 302.891 C 391.397 281.585, 394.927 258.533, 393.105 241.209 C 390.764 218.960, 385.455 198.889, 377.899 183.726 C 357.889 143.570, 319.666 113.292, 277.838 104.460 C 267.257 102.226, 250.157 101.778, 240 103.467 M 240 107.047 C 223.375 109.105, 203.726 116.500, 188.399 126.467 C 161.108 144.213, 145.586 161.242, 134.958 185.093 C 123.908 209.895, 121 223.311, 121 249.500 C 121 275.993, 124.285 291.342, 134.482 312.500 C 147.437 339.380, 168.027 360.079, 197 375.348 C 215.881 385.299, 232.613 389.285, 255.500 389.285 C 278.091 389.285, 291.746 386.133, 311.047 376.465 C 330.707 366.617, 351.189 349.618, 362.212 334 C 368.140 325.602, 380.239 302.351, 383.028 294 C 388.356 278.045, 391.040 251.815, 389.015 235.500 C 386.441 214.766, 382.827 202.669, 373.479 183.500 C 364.643 165.382, 360.253 159.066, 348.088 146.980 C 327.781 126.802, 301.529 112.523, 276.500 108.040 C 267.838 106.489, 248.715 105.969, 240 107.047 M 239.472 123.042 C 213.879 126.389, 188.004 139.610, 168.916 159.094 C 150.463 177.929, 137.989 202.836, 133.473 229.860 C 131.009 244.610, 131.839 267.604, 135.337 281.500 C 143.062 312.183, 161.521 339.417, 185.414 355.380 C 212.067 373.186, 239.884 380.343, 269.500 377.015 C 296.036 374.032, 318.776 362.367, 340.187 340.752 C 353.204 327.611, 357.532 321.585, 365.510 305.500 C 372.327 291.756, 375.674 279.285, 377.081 262.394 C 380.406 222.475, 367.186 184.989, 340.442 158.500 C 329.691 147.851, 319.530 140.757, 304.500 133.406 C 284.532 123.640, 262.161 120.075, 239.472 123.042 M 235.428 128.328 C 235.148 129.058, 235.376 130.858, 235.934 132.328 C 237.181 135.607, 239.493 135.969, 238.630 132.750 C 238.299 131.512, 238.021 129.713, 238.014 128.750 C 237.998 126.699, 236.167 126.400, 235.428 128.328 M 246.014 144.750 C 246.029 164.228, 246.422 167.256, 248.879 166.789 C 250.779 166.428, 251.660 158.491, 251.869 139.857 C 251.979 130.083, 251.746 128.117, 250.418 127.607 C 246.044 125.928, 245.999 126.102, 246.014 144.750 M 254.015 145.684 C 254.031 165.081, 254.651 168.790, 257.412 166 C 258.602 164.797, 258.933 160.834, 259.082 146 L 259.268 127.500 256.634 127.184 L 254 126.867 254.015 145.684 M 262 146.441 C 262 165.204, 262.558 168.842, 265.052 166.348 C 265.535 165.865, 266.241 156.814, 266.621 146.235 L 267.312 127 264.656 127 L 262 127 262 146.441 M 276.667 128.667 C 276.300 129.033, 276.014 130.946, 276.032 132.917 C 276.062 136.284, 276.152 136.383, 277.532 134.559 C 279.932 131.385, 279.166 126.167, 276.667 128.667 M 224.385 133.177 C 225.154 137.021, 225.714 137.686, 227.054 136.346 C 227.745 135.655, 227.747 134.466, 227.062 132.663 C 225.604 128.828, 223.593 129.214, 224.385 133.177 M 289.098 135.149 C 287.744 139.034, 287.721 140, 288.987 140 C 289.529 140, 290.654 138.370, 291.487 136.378 C 293.332 131.962, 293.331 132, 291.598 132 C 290.827 132, 289.702 133.417, 289.098 135.149 M 213 135.378 C 213 137.728, 215.535 140.798, 216.598 139.735 C 217.169 139.165, 214.310 133, 213.474 133 C 213.213 133, 213 134.070, 213 135.378 M 302.484 139.384 C 301.577 140.769, 300.984 142.606, 301.167 143.467 C 301.424 144.676, 302.120 144.371, 304.233 142.124 C 306.534 139.675, 306.742 139.031, 305.550 138.041 C 304.418 137.102, 303.803 137.371, 302.484 139.384 M 202.543 138.931 C 201.782 140.163, 203.668 144, 205.035 144 C 205.566 144, 206 143.155, 206 142.122 C 206 139.797, 203.458 137.450, 202.543 138.931 M 304.579 160.902 C 297.443 175.417, 296.353 179, 299.071 179 C 299.596 179, 301.645 176.412, 303.625 173.250 C 305.605 170.088, 309.938 163.331, 313.254 158.235 C 319.119 149.224, 319.234 148.916, 317.487 146.985 C 313.918 143.042, 312.731 144.321, 304.579 160.902 M 192.527 147.357 C 190.096 149.134, 190.012 148.963, 201.884 166.388 C 210.222 178.627, 211.434 179.995, 212.766 178.663 C 214.098 177.331, 213.924 176.458, 211.207 170.832 C 206.213 160.491, 197.565 146.540, 195.957 146.230 C 195.134 146.072, 193.591 146.579, 192.527 147.357 M 183.033 151.816 C 182.986 153.699, 184.897 157, 186.035 157 C 187.553 157, 187.172 155.428, 185.033 152.861 C 183.908 151.511, 183.052 151.063, 183.033 151.816 M 324.557 153.223 C 321.990 156.887, 322.610 158.715, 325.500 156 C 328.004 153.648, 328.828 151, 327.057 151 C 326.538 151, 325.413 152, 324.557 153.223 M 333.510 160.990 C 330.538 164.091, 330.490 165.517, 333.394 164.402 C 335.200 163.709, 338.606 158, 337.213 158 C 336.752 158, 335.085 159.345, 333.510 160.990 M 174 160.259 C 174 161.625, 177.887 164.446, 178.678 163.655 C 178.944 163.389, 178.660 162.233, 178.046 161.086 C 176.829 158.811, 174 158.234, 174 160.259 M 342.004 169.496 C 340.714 170.869, 339.947 172.280, 340.298 172.632 C 341.271 173.604, 346 170.159, 346 168.477 C 346 166.323, 344.665 166.663, 342.004 169.496 M 166 168.800 C 166 170.102, 168.286 172, 169.855 172 C 171.010 172, 170.937 171.588, 169.500 170 C 167.641 167.946, 166 167.383, 166 168.800 M 158.640 177.693 C 157.766 178.567, 159.961 181, 161.622 181 C 162.380 181, 163 180.566, 163 180.035 C 163 178.785, 159.453 176.880, 158.640 177.693 M 349.200 179.200 C 347.577 180.823, 347.689 182, 349.465 182 C 350.270 182, 351.411 181.100, 352 180 C 352.822 178.464, 352.760 178, 351.735 178 C 351.001 178, 349.860 178.540, 349.200 179.200 M 153.201 189.855 L 151.035 193.711 167.028 202.770 C 181.314 210.862, 183.122 211.641, 183.964 210.068 C 184.588 208.901, 184.523 207.923, 183.770 207.170 C 183.145 206.545, 182.932 205.735, 183.296 205.370 C 184.245 204.422, 191.103 209.170, 201.500 217.973 C 227.987 240.400, 236.071 246.957, 240.241 249.401 C 243.195 251.132, 245.210 253.162, 245.879 255.082 C 246.892 257.987, 246.744 258.195, 240.460 262.716 C 231.227 269.358, 232.053 271.211, 242.151 266.510 C 250.398 262.670, 259.108 262.991, 270.411 267.548 C 275.251 269.500, 279.726 270.921, 280.355 270.706 C 280.985 270.492, 278.012 266.725, 273.750 262.336 C 269.488 257.947, 266.009 253.939, 266.020 253.428 C 266.032 252.918, 270.869 250.174, 276.770 247.332 C 283.322 244.177, 296.049 236.273, 309.454 227.035 C 321.528 218.715, 336.378 209.074, 342.454 205.613 C 362.640 194.110, 361.513 195.193, 357.975 190.696 L 355.950 188.121 348.225 192.933 C 343.976 195.580, 337.462 199.399, 333.750 201.421 C 330.038 203.443, 326.985 205.638, 326.967 206.299 C 326.950 206.960, 315.812 213.001, 302.217 219.724 C 285.984 227.752, 274.833 233.958, 269.730 237.806 L 261.961 243.664 254.939 241.919 C 251.077 240.959, 246.473 239.103, 244.709 237.795 C 241.045 235.078, 224.981 224.913, 211 216.465 C 205.775 213.308, 193.629 206.675, 184.009 201.726 C 174.388 196.777, 164.269 191.214, 161.522 189.364 C 158.775 187.514, 156.266 186, 155.947 186 C 155.629 186, 154.393 187.735, 153.201 189.855 M 144.245 205.250 C 144.734 206.736, 149 207.567, 149 206.177 C 149 205.207, 146.691 204, 144.835 204 C 144.284 204, 144.019 204.563, 144.245 205.250 M 361.010 205.488 C 360.009 206.694, 360.083 207.095, 361.400 207.600 C 363.048 208.232, 366 206.485, 366 204.878 C 366 203.436, 362.341 203.884, 361.010 205.488 M 366.446 216.429 C 365.077 217.439, 364.813 218.183, 365.554 218.936 C 366.302 219.697, 367.172 219.591, 368.554 218.571 C 369.923 217.561, 370.187 216.817, 369.446 216.064 C 368.698 215.303, 367.828 215.409, 366.446 216.429 M 140 217.393 C 140 218.982, 142.703 220.302, 144.139 219.414 C 145.377 218.649, 143.235 216, 141.378 216 C 140.620 216, 140 216.627, 140 217.393 M 368.446 231.087 C 368.077 231.685, 368.256 232.656, 368.845 233.245 C 370.093 234.493, 373.339 232.357, 372.430 230.887 C 371.669 229.655, 369.256 229.777, 368.446 231.087 M 137.217 232.166 C 137.459 232.900, 138.684 233.650, 139.940 233.834 C 141.491 234.061, 142.082 233.741, 141.783 232.834 C 141.541 232.100, 140.316 231.350, 139.060 231.166 C 137.509 230.939, 136.918 231.259, 137.217 232.166 M 411.534 239.944 C 411.174 240.528, 411.182 243.030, 411.553 245.503 C 412.082 249.035, 412.639 250, 414.146 250 C 416.408 250, 418.047 246.338, 417.028 243.561 C 416.070 240.952, 412.403 238.538, 411.534 239.944 M 354.500 247.045 C 345.700 247.421, 338.163 247.790, 337.750 247.865 C 337.337 247.939, 337 249.058, 337 250.350 C 337 252.599, 337.396 252.729, 346.154 253.350 C 351.188 253.708, 359.513 254, 364.654 254 L 374 254 374 250 C 374 246.788, 373.655 246.036, 372.250 246.181 C 371.288 246.280, 363.300 246.669, 354.500 247.045 M 137 251.243 L 137 255 145.750 254.995 C 150.563 254.992, 158.910 254.698, 164.299 254.341 C 173.507 253.731, 174.081 253.565, 173.799 251.596 C 173.526 249.681, 172.636 249.442, 163.500 248.826 C 158 248.455, 149.787 248.002, 145.250 247.819 L 137 247.485 137 251.243 M 253.446 252.087 C 253.077 252.685, 253.236 253.636, 253.800 254.200 C 255.062 255.462, 257 254.396, 257 252.441 C 257 250.757, 254.426 250.501, 253.446 252.087 M 369 268.430 C 369 269.451, 369.903 270, 371.583 270 C 374.716 270, 374.373 267.652, 371.172 267.180 C 369.729 266.968, 369 267.388, 369 268.430 M 136.965 269.542 C 135.763 270.991, 135.938 271.133, 138.557 270.835 C 140.176 270.651, 141.411 270.050, 141.303 269.500 C 140.968 267.803, 138.388 267.828, 136.965 269.542 M 366 281.433 C 366 282.894, 369.704 284.629, 370.699 283.634 C 371 283.333, 370.981 282.392, 370.655 281.543 C 369.909 279.598, 366 279.505, 366 281.433 M 140.250 282.662 C 138.099 283.530, 138.885 285, 141.500 285 C 143.056 285, 144 284.433, 144 283.500 C 144 282.007, 142.632 281.701, 140.250 282.662 M 328 292.305 C 328 294.204, 330.582 296.172, 342.645 303.468 C 356.434 311.808, 357.368 312.217, 358.645 310.471 C 361.549 306.500, 360.443 305.451, 345.091 297.612 C 336.891 293.425, 329.691 290, 329.091 290 C 328.491 290, 328 291.037, 328 292.305 M 166 298.575 C 158.025 302.717, 151.124 306.481, 150.665 306.939 C 150.206 307.396, 150.551 309.165, 151.433 310.870 L 153.036 313.971 157.768 310.635 C 160.371 308.800, 166.775 304.774, 172 301.689 C 177.225 298.604, 182.078 295.688, 182.784 295.210 C 184.249 294.217, 183.370 290.989, 181.643 291.021 C 181.014 291.033, 173.975 294.432, 166 298.575 M 362 293.893 C 362 294.913, 364.427 296, 366.704 296 C 367.960 296, 368.015 295.723, 367 294.500 C 365.654 292.878, 362 292.434, 362 293.893 M 144.122 294.904 C 142.549 295.900, 143.451 298, 145.452 298 C 146.915 298, 148.219 295.552, 147.264 294.598 C 146.463 293.796, 145.763 293.864, 144.122 294.904 M 348 321.943 C 348 323.088, 352.188 326.145, 352.850 325.483 C 353.448 324.886, 349.976 321, 348.845 321 C 348.380 321, 348 321.424, 348 321.943 M 158.980 323.524 C 158.284 324.362, 157.993 325.327, 158.333 325.667 C 159.060 326.393, 162 324.156, 162 322.878 C 162 321.500, 160.370 321.849, 158.980 323.524 M 298.535 325.133 C 297.564 327.537, 310.753 357.054, 312.760 356.968 C 314.456 356.895, 317 354.145, 316.995 352.390 C 316.990 350.614, 306.067 332.391, 301.347 326.285 C 299.540 323.947, 299.089 323.762, 298.535 325.133 M 209.774 327.750 C 208.930 328.712, 205.033 334.851, 201.114 341.391 C 195.573 350.639, 194.240 353.584, 195.117 354.641 C 197.927 358.027, 199.733 356.122, 206.397 342.744 C 212.643 330.204, 214.089 326, 212.155 326 C 211.690 326, 210.619 326.788, 209.774 327.750 M 167.494 333.006 C 166.496 334.110, 165.973 335.307, 166.333 335.667 C 167.063 336.396, 171 333.171, 171 331.845 C 171 330.385, 169.381 330.921, 167.494 333.006 M 341.232 333 C 342.458 334.963, 345 335.773, 345 334.200 C 345 332.951, 342.739 331, 341.292 331 C 340.233 331, 340.222 331.383, 341.232 333 M 254.654 343.250 C 254.301 347.788, 254.009 356.337, 254.006 362.250 L 254 373 257 373 L 260 373 260 365.724 C 260 359.085, 258.827 346.421, 257.455 338.250 C 256.506 332.595, 255.319 334.715, 254.654 343.250 M 333 340.378 C 333 342.039, 335.433 344.234, 336.307 343.360 C 337.120 342.547, 335.215 339, 333.965 339 C 333.434 339, 333 339.620, 333 340.378 M 175.036 341.456 C 173.108 343.779, 174.859 345.438, 177.099 343.410 C 178.145 342.464, 179 341.310, 179 340.845 C 179 339.471, 176.344 339.881, 175.036 341.456 M 324 345.763 C 324 347.957, 325.257 350, 326.607 350 C 328.576 350, 328.335 348.613, 326 346.500 C 324.900 345.505, 324 345.173, 324 345.763 M 183.980 347.524 C 183.284 348.362, 182.985 349.318, 183.314 349.648 C 184.338 350.672, 187 349.143, 187 347.531 C 187 345.573, 185.602 345.569, 183.980 347.524 M 297 361.718 C 297 364.604, 298.005 367, 299.215 367 C 299.806 367, 299.938 365.871, 299.538 364.250 C 298.634 360.592, 297 358.962, 297 361.718 M 212.089 363.250 C 211.372 365.157, 212.363 367.070, 213.438 365.854 C 214.532 364.618, 214.977 361, 214.035 361 C 213.430 361, 212.555 362.012, 212.089 363.250 M 226.250 366.141 C 224.741 367.661, 224.591 371, 226.031 371 C 227.325 371, 228.275 368.630, 227.835 366.500 C 227.566 365.201, 227.254 365.131, 226.250 366.141 M 284 366.726 C 284 369.140, 286.593 372.740, 287.604 371.729 C 288.626 370.707, 286.834 365.774, 285.250 365.248 C 284.544 365.014, 284 365.657, 284 366.726 M 240.082 369.413 C 239.325 371.319, 239.265 372.665, 239.907 373.307 C 240.550 373.950, 241.115 373.390, 241.542 371.688 C 242.529 367.757, 241.423 366.035, 240.082 369.413 M 271.014 368.250 C 271.040 370.699, 272.248 374, 273.117 374 C 274.131 374, 274.288 370.914, 273.393 368.582 C 272.672 366.702, 270.994 366.468, 271.014 368.250 M 174.575 387.750 C 177.612 401.469, 179.272 408.061, 179.607 407.726 C 180.446 406.887, 178.058 388.775, 176.929 387.415 C 175.314 385.468, 174.108 385.640, 174.575 387.750 M 332.993 388.250 C 332.989 388.938, 332.345 393.768, 331.562 398.985 C 330.778 404.202, 330.310 408.643, 330.520 408.853 C 330.984 409.317, 331.557 406.945, 333.507 396.500 C 335.278 387.011, 335.278 387, 334 387 C 333.450 387, 332.997 387.563, 332.993 388.250 M 184.015 397.750 C 184.024 401.462, 184.361 404.988, 184.765 405.584 C 185.202 406.228, 193.624 407.168, 205.500 407.899 C 216.500 408.577, 228.200 409.327, 231.500 409.568 C 237.305 409.992, 237.216 409.944, 228.771 408.092 C 216.016 405.296, 205.288 401.492, 194.448 395.923 C 189.178 393.215, 184.671 391, 184.433 391 C 184.195 391, 184.007 394.038, 184.015 397.750 M 317.500 396.169 C 307.169 401.076, 290.520 406.465, 281 407.984 C 270.135 409.717, 269.587 409.991, 278 409.483 C 282.125 409.234, 294.275 408.529, 305 407.917 C 315.725 407.305, 324.860 406.466, 325.299 406.053 C 325.739 405.640, 325.964 402.392, 325.799 398.835 L 325.500 392.369 317.500 396.169 M 240.264 410.718 C 241.784 410.947, 244.034 410.941, 245.264 410.704 C 246.494 410.467, 245.250 410.279, 242.500 410.286 C 239.750 410.294, 238.744 410.488, 240.264 410.718 M 263.762 410.707 C 265.006 410.946, 266.806 410.937, 267.762 410.687 C 268.718 410.437, 267.700 410.241, 265.500 410.252 C 263.300 410.263, 262.518 410.468, 263.762 410.707 M 194.500 426.442 C 198.271 429.713, 210.971 437.223, 217.298 439.923 C 233.648 446.899, 257.328 448.339, 275 443.430 C 284.938 440.670, 299.356 434.849, 307.742 430.210 C 312.275 427.703, 315.825 425.492, 315.630 425.297 C 315.436 425.102, 309.557 426.759, 302.567 428.979 C 284.758 434.634, 275.398 436.076, 256.500 436.079 C 237.405 436.082, 222.701 433.854, 205.822 428.400 C 199.595 426.388, 193.825 424.539, 193 424.291 C 192.175 424.043, 192.850 425.011, 194.500 426.442" stroke="none" fill="black" fill-rule="evenodd"/>
</svg>